<?xml version="1.0" encoding="UTF-8" standalone="no"?><svg xmlns="http://www.w3.org/2000/svg" xmlns:xlink="http://www.w3.org/1999/xlink" contentScriptType="application/ecmascript" contentStyleType="text/css" height="379px" preserveAspectRatio="none" style="width:1357px;height:379px;" version="1.1" viewBox="0 0 1357 379" width="1357px" zoomAndPan="magnify"><defs><filter height="300%" id="fp94z4s233hnt" width="300%" x="-1" y="-1"><feGaussianBlur result="blurOut" stdDeviation="2.0"/><feColorMatrix in="blurOut" result="blurOut2" type="matrix" values="0 0 0 0 0 0 0 0 0 0 0 0 0 0 0 0 0 0 .4 0"/><feOffset dx="4.0" dy="4.0" in="blurOut2" result="blurOut3"/><feBlend in="SourceGraphic" in2="blurOut3" mode="normal"/></filter></defs><g><text fill="#000000" font-family="sans-serif" font-size="11" lengthAdjust="spacingAndGlyphs" textLength="185" x="592" y="10.2104">Source Code Directory Structure</text><!--MD5=[a608737ac6e33ba9132dd7ae0f02a8a0]
cluster src/--><polygon fill="#FFFFFF" filter="url(#fp94z4s233hnt)" points="22,36.8047,51,36.8047,58,55.6094,1335,55.6094,1335,367.8047,22,367.8047,22,36.8047" style="stroke: #000000; stroke-width: 1.5;"/><line style="stroke: #000000; stroke-width: 1.5;" x1="22" x2="58" y1="55.6094" y2="55.6094"/><text fill="#000000" font-family="sans-serif" font-size="11" font-weight="bold" lengthAdjust="spacingAndGlyphs" textLength="23" x="26" y="49.0151">src/</text><!--MD5=[f2aa2eae7cc4d114962f5faa083532d6]
cluster app_core/--><polygon fill="#ADD8E6" filter="url(#fp94z4s233hnt)" points="1014,114.8047,1082,114.8047,1089,133.6094,1311,133.6094,1311,210.8047,1014,210.8047,1014,114.8047" style="stroke: #000000; stroke-width: 1.5;"/><line style="stroke: #000000; stroke-width: 1.5;" x1="1014" x2="1089" y1="133.6094" y2="133.6094"/><text fill="#000000" font-family="sans-serif" font-size="11" font-weight="bold" lengthAdjust="spacingAndGlyphs" textLength="62" x="1018" y="127.0151">app_core/</text><!--MD5=[0234b58c721fb214c83ba33b85b19c97]
cluster net_core/--><polygon fill="#FFB6C1" filter="url(#fp94z4s233hnt)" points="854,114.8047,919,114.8047,926,133.6094,990,133.6094,990,210.8047,854,210.8047,854,114.8047" style="stroke: #000000; stroke-width: 1.5;"/><line style="stroke: #000000; stroke-width: 1.5;" x1="854" x2="926" y1="133.6094" y2="133.6094"/><text fill="#000000" font-family="sans-serif" font-size="11" font-weight="bold" lengthAdjust="spacingAndGlyphs" textLength="59" x="858" y="127.0151">net_core/</text><!--MD5=[482ad584e9f04c9b2276710234675a35]
cluster sdk/--><polygon fill="#90EE90" filter="url(#fp94z4s233hnt)" points="46,75.8047,78,75.8047,85,94.6094,830,94.6094,830,343.8047,46,343.8047,46,75.8047" style="stroke: #000000; stroke-width: 1.5;"/><line style="stroke: #000000; stroke-width: 1.5;" x1="46" x2="85" y1="94.6094" y2="94.6094"/><text fill="#000000" font-family="sans-serif" font-size="11" font-weight="bold" lengthAdjust="spacingAndGlyphs" textLength="26" x="50" y="88.0151">sdk/</text><!--MD5=[bcba4b9807b9abc70ab16fe07070ba9c]
cluster protocol/--><polygon fill="#90EE90" filter="url(#fp94z4s233hnt)" points="595,114.8047,658,114.8047,665,133.6094,806,133.6094,806,319.8047,595,319.8047,595,114.8047" style="stroke: #000000; stroke-width: 1.5;"/><line style="stroke: #000000; stroke-width: 1.5;" x1="595" x2="665" y1="133.6094" y2="133.6094"/><text fill="#000000" font-family="sans-serif" font-size="11" font-weight="bold" lengthAdjust="spacingAndGlyphs" textLength="57" x="599" y="127.0151">protocol/</text><!--MD5=[e4e27dd8692e4330fb229e7a51edb349]
cluster hw/--><polygon fill="#90EE90" filter="url(#fp94z4s233hnt)" points="376,114.8047,405,114.8047,412,133.6094,571,133.6094,571,210.8047,376,210.8047,376,114.8047" style="stroke: #000000; stroke-width: 1.5;"/><line style="stroke: #000000; stroke-width: 1.5;" x1="376" x2="412" y1="133.6094" y2="133.6094"/><text fill="#000000" font-family="sans-serif" font-size="11" font-weight="bold" lengthAdjust="spacingAndGlyphs" textLength="23" x="380" y="127.0151">hw/</text><!--MD5=[5f8001be48ef7972ef3e8d10701f7c03]
cluster ipc/--><polygon fill="#90EE90" filter="url(#fp94z4s233hnt)" points="218,114.8047,247,114.8047,254,133.6094,352,133.6094,352,210.8047,218,210.8047,218,114.8047" style="stroke: #000000; stroke-width: 1.5;"/><line style="stroke: #000000; stroke-width: 1.5;" x1="218" x2="254" y1="133.6094" y2="133.6094"/><text fill="#000000" font-family="sans-serif" font-size="11" font-weight="bold" lengthAdjust="spacingAndGlyphs" textLength="23" x="222" y="127.0151">ipc/</text><!--MD5=[91189d4d9ac2be181fe778d26a83b569]
cluster services/--><polygon fill="#90EE90" filter="url(#fp94z4s233hnt)" points="70,114.8047,133,114.8047,140,133.6094,194,133.6094,194,210.8047,70,210.8047,70,114.8047" style="stroke: #000000; stroke-width: 1.5;"/><line style="stroke: #000000; stroke-width: 1.5;" x1="70" x2="140" y1="133.6094" y2="133.6094"/><text fill="#000000" font-family="sans-serif" font-size="11" font-weight="bold" lengthAdjust="spacingAndGlyphs" textLength="57" x="74" y="127.0151">services/</text><!--MD5=[012b19920d2a56c6fd794b2bb702bb90]
entity app_core.cpp--><polygon fill="#FEFECE" filter="url(#fp94z4s233hnt)" points="1189,145.8047,1235,145.8047,1242,166.8047,1295,166.8047,1295,194.4141,1189,194.4141,1189,145.8047" style="stroke: #000000; stroke-width: 1.5;"/><line style="stroke: #000000; stroke-width: 1.5;" x1="1189" x2="1242" y1="166.8047" y2="166.8047"/><text fill="#000000" font-family="sans-serif" font-size="11" lengthAdjust="spacingAndGlyphs" textLength="76" x="1199" y="184.0151">app_core.cpp</text><!--MD5=[4e634ba4de7f2e0a714f9207410e3555]
entity cpp_support.cpp--><polygon fill="#FEFECE" filter="url(#fp94z4s233hnt)" points="1030,145.8047,1076,145.8047,1083,166.8047,1154,166.8047,1154,194.4141,1030,194.4141,1030,145.8047" style="stroke: #000000; stroke-width: 1.5;"/><line style="stroke: #000000; stroke-width: 1.5;" x1="1030" x2="1083" y1="166.8047" y2="166.8047"/><text fill="#000000" font-family="sans-serif" font-size="11" lengthAdjust="spacingAndGlyphs" textLength="94" x="1040" y="184.0151">cpp_support.cpp</text><!--MD5=[423dd86f3097d411c24aed2929d0519b]
entity net_core.cpp--><polygon fill="#FEFECE" filter="url(#fp94z4s233hnt)" points="870.5,145.8047,916.5,145.8047,923.5,166.8047,973.5,166.8047,973.5,194.4141,870.5,194.4141,870.5,145.8047" style="stroke: #000000; stroke-width: 1.5;"/><line style="stroke: #000000; stroke-width: 1.5;" x1="870.5" x2="923.5" y1="166.8047" y2="166.8047"/><text fill="#000000" font-family="sans-serif" font-size="11" lengthAdjust="spacingAndGlyphs" textLength="73" x="880.5" y="184.0151">net_core.cpp</text><!--MD5=[0376ec0b77574a6cd5fdf1f3eece6828]
entity matter/--><polygon fill="#FEFECE" filter="url(#fp94z4s233hnt)" points="611,145.8047,657,145.8047,664,166.8047,683,166.8047,683,194.4141,611,194.4141,611,145.8047" style="stroke: #000000; stroke-width: 1.5;"/><line style="stroke: #000000; stroke-width: 1.5;" x1="611" x2="664" y1="166.8047" y2="166.8047"/><text fill="#000000" font-family="sans-serif" font-size="11" lengthAdjust="spacingAndGlyphs" textLength="42" x="621" y="184.0151">matter/</text><!--MD5=[b3aea4774d44df06f5de540fd8d664d8]
entity thread/--><polygon fill="#FEFECE" filter="url(#fp94z4s233hnt)" points="718.5,145.8047,764.5,145.8047,771.5,166.8047,789.5,166.8047,789.5,194.4141,718.5,194.4141,718.5,145.8047" style="stroke: #000000; stroke-width: 1.5;"/><line style="stroke: #000000; stroke-width: 1.5;" x1="718.5" x2="771.5" y1="166.8047" y2="166.8047"/><text fill="#000000" font-family="sans-serif" font-size="11" lengthAdjust="spacingAndGlyphs" textLength="41" x="728.5" y="184.0151">thread/</text><!--MD5=[621a3e2e06fc8a12261e79230ef311af]
entity ble/--><polygon fill="#FEFECE" filter="url(#fp94z4s233hnt)" points="621.5,254.8047,667.5,254.8047,674.5,275.8047,672.5,275.8047,672.5,303.4141,621.5,303.4141,621.5,254.8047" style="stroke: #000000; stroke-width: 1.5;"/><line style="stroke: #000000; stroke-width: 1.5;" x1="621.5" x2="674.5" y1="275.8047" y2="275.8047"/><text fill="#000000" font-family="sans-serif" font-size="11" lengthAdjust="spacingAndGlyphs" textLength="21" x="631.5" y="293.0151">ble/</text><!--MD5=[a56a43225c307e20b73295eabb9183a9]
entity radio/--><polygon fill="#FEFECE" filter="url(#fp94z4s233hnt)" points="707.5,254.8047,753.5,254.8047,760.5,275.8047,770.5,275.8047,770.5,303.4141,707.5,303.4141,707.5,254.8047" style="stroke: #000000; stroke-width: 1.5;"/><line style="stroke: #000000; stroke-width: 1.5;" x1="707.5" x2="760.5" y1="275.8047" y2="275.8047"/><text fill="#000000" font-family="sans-serif" font-size="11" lengthAdjust="spacingAndGlyphs" textLength="33" x="717.5" y="293.0151">radio/</text><!--MD5=[3554e62115910128ee4ca3a225014a1d]
entity button/--><polygon fill="#FEFECE" filter="url(#fp94z4s233hnt)" points="485,145.8047,531,145.8047,538,166.8047,555,166.8047,555,194.4141,485,194.4141,485,145.8047" style="stroke: #000000; stroke-width: 1.5;"/><line style="stroke: #000000; stroke-width: 1.5;" x1="485" x2="538" y1="166.8047" y2="166.8047"/><text fill="#000000" font-family="sans-serif" font-size="11" lengthAdjust="spacingAndGlyphs" textLength="40" x="495" y="184.0151">button/</text><!--MD5=[d2eab69c496f08bbe82f1aad21ff51ac]
entity uart/--><polygon fill="#FEFECE" filter="url(#fp94z4s233hnt)" points="392.5,145.8047,438.5,145.8047,445.5,166.8047,449.5,166.8047,449.5,194.4141,392.5,194.4141,392.5,145.8047" style="stroke: #000000; stroke-width: 1.5;"/><line style="stroke: #000000; stroke-width: 1.5;" x1="392.5" x2="445.5" y1="166.8047" y2="166.8047"/><text fill="#000000" font-family="sans-serif" font-size="11" lengthAdjust="spacingAndGlyphs" textLength="27" x="402.5" y="184.0151">uart/</text><!--MD5=[e4cd4b85cee32acadc8d6698244148fb]
entity ipc_core.cpp--><polygon fill="#FEFECE" filter="url(#fp94z4s233hnt)" points="234.5,145.8047,280.5,145.8047,287.5,166.8047,335.5,166.8047,335.5,194.4141,234.5,194.4141,234.5,145.8047" style="stroke: #000000; stroke-width: 1.5;"/><line style="stroke: #000000; stroke-width: 1.5;" x1="234.5" x2="287.5" y1="166.8047" y2="166.8047"/><text fill="#000000" font-family="sans-serif" font-size="11" lengthAdjust="spacingAndGlyphs" textLength="71" x="244.5" y="184.0151">ipc_core.cpp</text><!--MD5=[479d9c9098e80883dccd82f23fcf6a46]
entity wakeword/--><polygon fill="#FEFECE" filter="url(#fp94z4s233hnt)" points="86.5,145.8047,132.5,145.8047,139.5,166.8047,177.5,166.8047,177.5,194.4141,86.5,194.4141,86.5,145.8047" style="stroke: #000000; stroke-width: 1.5;"/><line style="stroke: #000000; stroke-width: 1.5;" x1="86.5" x2="139.5" y1="166.8047" y2="166.8047"/><text fill="#000000" font-family="sans-serif" font-size="11" lengthAdjust="spacingAndGlyphs" textLength="61" x="96.5" y="184.0151">wakeword/</text><!--MD5=[7614f44d11b7b157c71c7401cda0acb8]
link matter/ to thread/--><!--MD5=[74502beaabc3c69628f26383d4a5a85a]
link matter/ to ble/--><!--MD5=[dd451376d14518354db480062b2ff4a5]
link ble/ to radio/--><!--MD5=[8ebdb86ed67f22ff304383f0cc41a04f]
@startuml directory_structure
skinparam backgroundColor #FFFFFF
skinparam packageStyle rectangle
skinparam defaultFontSize 11

title Source Code Directory Structure

package "src/" {
    package "app_core/" #LightBlue {
        folder "app_core.cpp"
        folder "cpp_support.cpp"
    }
    
    package "net_core/" #LightPink {
        folder "net_core.cpp"
    }
    
    package "sdk/" #LightGreen {
        package "protocol/" {
            folder "matter/"
            folder "thread/"
            folder "ble/"
            folder "radio/"
        }
        
        package "hw/" {
            folder "button/"
            folder "uart/"
        }
        
        package "ipc/" {
            folder "ipc_core.cpp"
        }
        
        package "services/" {
            folder "wakeword/"
        }
    }
}

@enduml

PlantUML version 1.2020.02(Sun Mar 01 17:22:07 ICT 2020)
(GPL source distribution)
Java Runtime: OpenJDK Runtime Environment
JVM: OpenJDK 64-Bit Server VM
Java Version: 21.0.9+10-Ubuntu-124.04
Operating System: Linux
Default Encoding: UTF-8
Language: en
Country: US
--></g></svg>