<?xml version="1.0" encoding="UTF-8" standalone="no"?><svg xmlns="http://www.w3.org/2000/svg" xmlns:xlink="http://www.w3.org/1999/xlink" contentScriptType="application/ecmascript" contentStyleType="text/css" height="494px" preserveAspectRatio="none" style="width:1683px;height:494px;" version="1.1" viewBox="0 0 1683 494" width="1683px" zoomAndPan="magnify"><defs><filter height="300%" id="flk1cyh0brxhh" width="300%" x="-1" y="-1"><feGaussianBlur result="blurOut" stdDeviation="2.0"/><feColorMatrix in="blurOut" result="blurOut2" type="matrix" values="0 0 0 0 0 0 0 0 0 0 0 0 0 0 0 0 0 0 .4 0"/><feOffset dx="4.0" dy="4.0" in="blurOut2" result="blurOut3"/><feBlend in="SourceGraphic" in2="blurOut3" mode="normal"/></filter></defs><g><text fill="#000000" font-family="sans-serif" font-size="11" lengthAdjust="spacingAndGlyphs" textLength="155" x="758.5" y="10.2104">C++ Namespace Hierarchy</text><!--MD5=[5e94930254ed2aae9258eafffcd1aeff]
cluster SM--><rect fill="#FFFFFF" filter="url(#flk1cyh0brxhh)" height="332" style="stroke: #000000; stroke-width: 1.5;" width="1609" x="22" y="151.8047"/><text fill="#000000" font-family="sans-serif" font-size="11" font-weight="bold" lengthAdjust="spacingAndGlyphs" textLength="79" x="787" y="164.0151">smarthome::</text><!--MD5=[0154495cc5479e589870a745833580d6]
cluster hw::--><rect fill="#F08080" filter="url(#flk1cyh0brxhh)" height="91" style="stroke: #000000; stroke-width: 1.5;" width="283" x="1324" y="229.8047"/><text fill="#000000" font-family="sans-serif" font-size="11" font-weight="bold" lengthAdjust="spacingAndGlyphs" textLength="27" x="1452" y="242.0151">hw::</text><!--MD5=[39a2eec008828a11ffcba276346df9f1]
cluster protocol::--><rect fill="#FFFFFF" filter="url(#flk1cyh0brxhh)" height="154" style="stroke: #000000; stroke-width: 1.5;" width="1050" x="250" y="190.8047"/><text fill="#000000" font-family="sans-serif" font-size="11" font-weight="bold" lengthAdjust="spacingAndGlyphs" textLength="61" x="744.5" y="203.0151">protocol::</text><!--MD5=[7d21a5d118e2691df5fb2578737536ec]
cluster matter::--><rect fill="#90EE90" filter="url(#flk1cyh0brxhh)" height="91" style="stroke: #000000; stroke-width: 1.5;" width="247" x="1029" y="229.8047"/><text fill="#000000" font-family="sans-serif" font-size="11" font-weight="bold" lengthAdjust="spacingAndGlyphs" textLength="50" x="1127.5" y="242.0151">matter::</text><!--MD5=[49cb892b1a97579be3e27da05f8f6102]
cluster thread::--><rect fill="#FFFFE0" filter="url(#flk1cyh0brxhh)" height="91" style="stroke: #000000; stroke-width: 1.5;" width="411" x="594" y="229.8047"/><text fill="#000000" font-family="sans-serif" font-size="11" font-weight="bold" lengthAdjust="spacingAndGlyphs" textLength="50" x="774.5" y="242.0151">thread::</text><!--MD5=[cef08abb5eab317bdd1097c843f1d81b]
cluster ble::--><rect fill="#FFB6C1" filter="url(#flk1cyh0brxhh)" height="91" style="stroke: #000000; stroke-width: 1.5;" width="130" x="440" y="229.8047"/><text fill="#000000" font-family="sans-serif" font-size="11" font-weight="bold" lengthAdjust="spacingAndGlyphs" textLength="28" x="491" y="242.0151">ble::</text><!--MD5=[853258966c41f36438fc9e81d98f4119]
cluster radio::--><rect fill="#FFB6C1" filter="url(#flk1cyh0brxhh)" height="91" style="stroke: #000000; stroke-width: 1.5;" width="142" x="274" y="229.8047"/><text fill="#000000" font-family="sans-serif" font-size="11" font-weight="bold" lengthAdjust="spacingAndGlyphs" textLength="41" x="324.5" y="242.0151">radio::</text><!--MD5=[516293fe54044ddb638b6a022f6b205c]
cluster ipc::--><rect fill="#FFA500" filter="url(#flk1cyh0brxhh)" height="91" style="stroke: #000000; stroke-width: 1.5;" width="106" x="1169" y="368.8047"/><text fill="#000000" font-family="sans-serif" font-size="11" font-weight="bold" lengthAdjust="spacingAndGlyphs" textLength="27" x="1208.5" y="381.0151">ipc::</text><!--MD5=[0758fb648d6b121f82485b17e815ea3d]
cluster services::--><rect fill="#FFFFFF" filter="url(#flk1cyh0brxhh)" height="154" style="stroke: #000000; stroke-width: 1.5;" width="180" x="46" y="190.8047"/><text fill="#000000" font-family="sans-serif" font-size="11" font-weight="bold" lengthAdjust="spacingAndGlyphs" textLength="61" x="105.5" y="203.0151">services::</text><!--MD5=[677d08f12426d7b2d02f067f0d8666b8]
cluster wakeword::--><rect fill="#E6E6FA" filter="url(#flk1cyh0brxhh)" height="91" style="stroke: #000000; stroke-width: 1.5;" width="132" x="70" y="229.8047"/><text fill="#000000" font-family="sans-serif" font-size="11" font-weight="bold" lengthAdjust="spacingAndGlyphs" textLength="74" x="99" y="242.0151">wakeword::</text><!--MD5=[c2b98116a3d4a36ec3e53037c9107dae]
cluster NET--><rect fill="#ADD8E6" filter="url(#flk1cyh0brxhh)" height="91" style="stroke: #000000; stroke-width: 1.5;" width="156" x="427" y="36.8047"/><text fill="#000000" font-family="sans-serif" font-size="11" font-weight="bold" lengthAdjust="spacingAndGlyphs" textLength="29" x="490.5" y="49.0151">net::</text><!--MD5=[17251ebdb009ebc02df00ec809a95d6e]
class ButtonManager--><rect fill="#FEFECE" filter="url(#flk1cyh0brxhh)" height="44" id="ButtonManager" style="stroke: #A80036; stroke-width: 1.5;" width="114" x="1477" y="260.8047"/><ellipse cx="1490" cy="274.8047" fill="#B4A7E5" rx="9" ry="9" style="stroke: #A80036; stroke-width: 1.0;"/><path d="M1486.9219,272.1797 L1486.9219,270.7891 L1491.7031,270.7891 L1491.7031,272.1797 L1490.1094,272.1797 L1490.1094,277.4141 L1491.7031,277.4141 L1491.7031,278.8047 L1486.9219,278.8047 L1486.9219,277.4141 L1488.5156,277.4141 L1488.5156,272.1797 L1486.9219,272.1797 Z "/><text fill="#000000" font-family="sans-serif" font-size="11" font-style="italic" lengthAdjust="spacingAndGlyphs" textLength="86" x="1502" y="278.6128">ButtonManager</text><line style="stroke: #A80036; stroke-width: 1.5;" x1="1478" x2="1590" y1="288.8047" y2="288.8047"/><line style="stroke: #A80036; stroke-width: 1.5;" x1="1478" x2="1590" y1="296.8047" y2="296.8047"/><!--MD5=[257019a95187e6f8db1536c8cc473817]
class UartManager--><rect fill="#FEFECE" filter="url(#flk1cyh0brxhh)" height="44" id="UartManager" style="stroke: #A80036; stroke-width: 1.5;" width="101" x="1340.5" y="260.8047"/><ellipse cx="1353.5" cy="274.8047" fill="#B4A7E5" rx="9" ry="9" style="stroke: #A80036; stroke-width: 1.0;"/><path d="M1350.4219,272.1797 L1350.4219,270.7891 L1355.2031,270.7891 L1355.2031,272.1797 L1353.6094,272.1797 L1353.6094,277.4141 L1355.2031,277.4141 L1355.2031,278.8047 L1350.4219,278.8047 L1350.4219,277.4141 L1352.0156,277.4141 L1352.0156,272.1797 L1350.4219,272.1797 Z "/><text fill="#000000" font-family="sans-serif" font-size="11" font-style="italic" lengthAdjust="spacingAndGlyphs" textLength="73" x="1365.5" y="278.6128">UartManager</text><line style="stroke: #A80036; stroke-width: 1.5;" x1="1341.5" x2="1440.5" y1="288.8047" y2="288.8047"/><line style="stroke: #A80036; stroke-width: 1.5;" x1="1341.5" x2="1440.5" y1="296.8047" y2="296.8047"/><!--MD5=[8dfa0fe7b0b6ae38fc9749b21f00fa91]
class AppTask--><rect fill="#FEFECE" filter="url(#flk1cyh0brxhh)" height="44" id="AppTask" style="stroke: #A80036; stroke-width: 1.5;" width="76" x="1184" y="260.8047"/><ellipse cx="1197" cy="274.8047" fill="#B4A7E5" rx="9" ry="9" style="stroke: #A80036; stroke-width: 1.0;"/><path d="M1193.9219,272.1797 L1193.9219,270.7891 L1198.7031,270.7891 L1198.7031,272.1797 L1197.1094,272.1797 L1197.1094,277.4141 L1198.7031,277.4141 L1198.7031,278.8047 L1193.9219,278.8047 L1193.9219,277.4141 L1195.5156,277.4141 L1195.5156,272.1797 L1193.9219,272.1797 Z "/><text fill="#000000" font-family="sans-serif" font-size="11" font-style="italic" lengthAdjust="spacingAndGlyphs" textLength="48" x="1209" y="278.6128">AppTask</text><line style="stroke: #A80036; stroke-width: 1.5;" x1="1185" x2="1259" y1="288.8047" y2="288.8047"/><line style="stroke: #A80036; stroke-width: 1.5;" x1="1185" x2="1259" y1="296.8047" y2="296.8047"/><!--MD5=[ea13ff76dfa126eacf9e668bf5fbce9b]
class LightEndpoint--><rect fill="#FEFECE" filter="url(#flk1cyh0brxhh)" height="44" id="LightEndpoint" style="stroke: #A80036; stroke-width: 1.5;" width="104" x="1045" y="260.8047"/><ellipse cx="1058" cy="274.8047" fill="#B4A7E5" rx="9" ry="9" style="stroke: #A80036; stroke-width: 1.0;"/><path d="M1054.9219,272.1797 L1054.9219,270.7891 L1059.7031,270.7891 L1059.7031,272.1797 L1058.1094,272.1797 L1058.1094,277.4141 L1059.7031,277.4141 L1059.7031,278.8047 L1054.9219,278.8047 L1054.9219,277.4141 L1056.5156,277.4141 L1056.5156,272.1797 L1054.9219,272.1797 Z "/><text fill="#000000" font-family="sans-serif" font-size="11" font-style="italic" lengthAdjust="spacingAndGlyphs" textLength="76" x="1070" y="278.6128">LightEndpoint</text><line style="stroke: #A80036; stroke-width: 1.5;" x1="1046" x2="1148" y1="288.8047" y2="288.8047"/><line style="stroke: #A80036; stroke-width: 1.5;" x1="1046" x2="1148" y1="296.8047" y2="296.8047"/><!--MD5=[aab89b3b68a8ac684d2169007691ad28]
class ThreadNetworkManager--><rect fill="#FEFECE" filter="url(#flk1cyh0brxhh)" height="44" id="ThreadNetworkManager" style="stroke: #A80036; stroke-width: 1.5;" width="163" x="825.5" y="260.8047"/><ellipse cx="838.5" cy="274.8047" fill="#B4A7E5" rx="9" ry="9" style="stroke: #A80036; stroke-width: 1.0;"/><path d="M835.4219,272.1797 L835.4219,270.7891 L840.2031,270.7891 L840.2031,272.1797 L838.6094,272.1797 L838.6094,277.4141 L840.2031,277.4141 L840.2031,278.8047 L835.4219,278.8047 L835.4219,277.4141 L837.0156,277.4141 L837.0156,272.1797 L835.4219,272.1797 Z "/><text fill="#000000" font-family="sans-serif" font-size="11" font-style="italic" lengthAdjust="spacingAndGlyphs" textLength="135" x="850.5" y="278.6128">ThreadNetworkManager</text><line style="stroke: #A80036; stroke-width: 1.5;" x1="826.5" x2="987.5" y1="288.8047" y2="288.8047"/><line style="stroke: #A80036; stroke-width: 1.5;" x1="826.5" x2="987.5" y1="296.8047" y2="296.8047"/><!--MD5=[edf7de0ff23ea17421fb686556f9691a]
class NetworkResilienceManager--><rect fill="#FEFECE" filter="url(#flk1cyh0brxhh)" height="44" id="NetworkResilienceManager" style="stroke: #A80036; stroke-width: 1.5;" width="180" x="610" y="260.8047"/><ellipse cx="623" cy="274.8047" fill="#B4A7E5" rx="9" ry="9" style="stroke: #A80036; stroke-width: 1.0;"/><path d="M619.9219,272.1797 L619.9219,270.7891 L624.7031,270.7891 L624.7031,272.1797 L623.1094,272.1797 L623.1094,277.4141 L624.7031,277.4141 L624.7031,278.8047 L619.9219,278.8047 L619.9219,277.4141 L621.5156,277.4141 L621.5156,272.1797 L619.9219,272.1797 Z "/><text fill="#000000" font-family="sans-serif" font-size="11" font-style="italic" lengthAdjust="spacingAndGlyphs" textLength="152" x="635" y="278.6128">NetworkResilienceManager</text><line style="stroke: #A80036; stroke-width: 1.5;" x1="611" x2="789" y1="288.8047" y2="288.8047"/><line style="stroke: #A80036; stroke-width: 1.5;" x1="611" x2="789" y1="296.8047" y2="296.8047"/><!--MD5=[c5f6ea99cd99aac70d4cea85d6dcb022]
class BLEManager--><rect fill="#FEFECE" filter="url(#flk1cyh0brxhh)" height="44" id="BLEManager" style="stroke: #A80036; stroke-width: 1.5;" width="98" x="456" y="260.8047"/><ellipse cx="469" cy="274.8047" fill="#B4A7E5" rx="9" ry="9" style="stroke: #A80036; stroke-width: 1.0;"/><path d="M465.9219,272.1797 L465.9219,270.7891 L470.7031,270.7891 L470.7031,272.1797 L469.1094,272.1797 L469.1094,277.4141 L470.7031,277.4141 L470.7031,278.8047 L465.9219,278.8047 L465.9219,277.4141 L467.5156,277.4141 L467.5156,272.1797 L465.9219,272.1797 Z "/><text fill="#000000" font-family="sans-serif" font-size="11" font-style="italic" lengthAdjust="spacingAndGlyphs" textLength="70" x="481" y="278.6128">BLEManager</text><line style="stroke: #A80036; stroke-width: 1.5;" x1="457" x2="553" y1="288.8047" y2="288.8047"/><line style="stroke: #A80036; stroke-width: 1.5;" x1="457" x2="553" y1="296.8047" y2="296.8047"/><!--MD5=[d7011ce0b65fcd1cc218172bc1638e93]
class RadioManager--><rect fill="#FEFECE" filter="url(#flk1cyh0brxhh)" height="44" id="RadioManager" style="stroke: #A80036; stroke-width: 1.5;" width="109" x="290.5" y="260.8047"/><ellipse cx="303.5" cy="274.8047" fill="#B4A7E5" rx="9" ry="9" style="stroke: #A80036; stroke-width: 1.0;"/><path d="M300.4219,272.1797 L300.4219,270.7891 L305.2031,270.7891 L305.2031,272.1797 L303.6094,272.1797 L303.6094,277.4141 L305.2031,277.4141 L305.2031,278.8047 L300.4219,278.8047 L300.4219,277.4141 L302.0156,277.4141 L302.0156,272.1797 L300.4219,272.1797 Z "/><text fill="#000000" font-family="sans-serif" font-size="11" font-style="italic" lengthAdjust="spacingAndGlyphs" textLength="81" x="315.5" y="278.6128">RadioManager</text><line style="stroke: #A80036; stroke-width: 1.5;" x1="291.5" x2="398.5" y1="288.8047" y2="288.8047"/><line style="stroke: #A80036; stroke-width: 1.5;" x1="291.5" x2="398.5" y1="296.8047" y2="296.8047"/><!--MD5=[5ffa190e463ee8e4443db50ba886c7c7]
class IPCCore--><rect fill="#FEFECE" filter="url(#flk1cyh0brxhh)" height="44" id="IPCCore" style="stroke: #A80036; stroke-width: 1.5;" width="73" x="1185.5" y="399.8047"/><ellipse cx="1198.5" cy="413.8047" fill="#B4A7E5" rx="9" ry="9" style="stroke: #A80036; stroke-width: 1.0;"/><path d="M1195.4219,411.1797 L1195.4219,409.7891 L1200.2031,409.7891 L1200.2031,411.1797 L1198.6094,411.1797 L1198.6094,416.4141 L1200.2031,416.4141 L1200.2031,417.8047 L1195.4219,417.8047 L1195.4219,416.4141 L1197.0156,416.4141 L1197.0156,411.1797 L1195.4219,411.1797 Z "/><text fill="#000000" font-family="sans-serif" font-size="11" font-style="italic" lengthAdjust="spacingAndGlyphs" textLength="45" x="1210.5" y="417.6128">IPCCore</text><line style="stroke: #A80036; stroke-width: 1.5;" x1="1186.5" x2="1257.5" y1="427.8047" y2="427.8047"/><line style="stroke: #A80036; stroke-width: 1.5;" x1="1186.5" x2="1257.5" y1="435.8047" y2="435.8047"/><!--MD5=[8ffb17dcd82b00278c7024b0755ebb2c]
class ModelLoader--><rect fill="#FEFECE" filter="url(#flk1cyh0brxhh)" height="44" id="ModelLoader" style="stroke: #A80036; stroke-width: 1.5;" width="100" x="86" y="260.8047"/><ellipse cx="99" cy="274.8047" fill="#B4A7E5" rx="9" ry="9" style="stroke: #A80036; stroke-width: 1.0;"/><path d="M95.9219,272.1797 L95.9219,270.7891 L100.7031,270.7891 L100.7031,272.1797 L99.1094,272.1797 L99.1094,277.4141 L100.7031,277.4141 L100.7031,278.8047 L95.9219,278.8047 L95.9219,277.4141 L97.5156,277.4141 L97.5156,272.1797 L95.9219,272.1797 Z "/><text fill="#000000" font-family="sans-serif" font-size="11" font-style="italic" lengthAdjust="spacingAndGlyphs" textLength="72" x="111" y="278.6128">ModelLoader</text><line style="stroke: #A80036; stroke-width: 1.5;" x1="87" x2="185" y1="288.8047" y2="288.8047"/><line style="stroke: #A80036; stroke-width: 1.5;" x1="87" x2="185" y1="296.8047" y2="296.8047"/><!--MD5=[b1d9e6e9e8022f4ec4a5d8e15cd4ff6c]
class NetCoreManager--><rect fill="#FEFECE" filter="url(#flk1cyh0brxhh)" height="44" id="NetCoreManager" style="stroke: #A80036; stroke-width: 1.5;" width="123" x="443.5" y="67.8047"/><ellipse cx="456.5" cy="81.8047" fill="#B4A7E5" rx="9" ry="9" style="stroke: #A80036; stroke-width: 1.0;"/><path d="M453.4219,79.1797 L453.4219,77.7891 L458.2031,77.7891 L458.2031,79.1797 L456.6094,79.1797 L456.6094,84.4141 L458.2031,84.4141 L458.2031,85.8047 L453.4219,85.8047 L453.4219,84.4141 L455.0156,84.4141 L455.0156,79.1797 L453.4219,79.1797 Z "/><text fill="#000000" font-family="sans-serif" font-size="11" font-style="italic" lengthAdjust="spacingAndGlyphs" textLength="95" x="468.5" y="85.6128">NetCoreManager</text><line style="stroke: #A80036; stroke-width: 1.5;" x1="444.5" x2="565.5" y1="95.8047" y2="95.8047"/><line style="stroke: #A80036; stroke-width: 1.5;" x1="444.5" x2="565.5" y1="103.8047" y2="103.8047"/><!--MD5=[4cfbb2d5e6e81a685ad611ca08a10ef5]
link AppTask to IPCCore--><path d="M1222,304.9147 C1222,328.9747 1222,368.3447 1222,394.4247 " fill="none" id="AppTask-&gt;IPCCore" style="stroke: #A80036; stroke-width: 1.0; stroke-dasharray: 7.0,7.0;"/><polygon fill="#A80036" points="1222,399.4447,1226,390.4447,1222,394.4447,1218,390.4447,1222,399.4447" style="stroke: #A80036; stroke-width: 1.0;"/><!--MD5=[be380488e058ecabeafa47c0922f62ca]
link ThreadNetworkManager to IPCCore--><path d="M940.6,304.9347 C964.65,319.5247 998.1,338.7547 1029,352.8047 C1079.6,375.8147 1140.45,396.0947 1180.11,408.3947 " fill="none" id="ThreadNetworkManager-&gt;IPCCore" style="stroke: #A80036; stroke-width: 1.0; stroke-dasharray: 7.0,7.0;"/><polygon fill="#A80036" points="1185.33,410.0047,1177.903,403.5364,1180.5508,408.5353,1175.5519,411.1831,1185.33,410.0047" style="stroke: #A80036; stroke-width: 1.0;"/><!--MD5=[0d30ced62e672c78439dd453d12a2b67]
link NetCoreManager to BLEManager--><path d="M505,111.9747 C505,146.9647 505,216.8047 505,255.1247 " fill="none" id="NetCoreManager-&gt;BLEManager" style="stroke: #A80036; stroke-width: 1.0; stroke-dasharray: 7.0,7.0;"/><polygon fill="#A80036" points="505,260.5447,509,251.5447,505,255.5447,501,251.5447,505,260.5447" style="stroke: #A80036; stroke-width: 1.0;"/><!--MD5=[d759be619511616e32c119b024c962c5]
link NetCoreManager to RadioManager--><path d="M475.63,111.8747 C463.89,121.0047 450.66,132.2447 440,143.8047 C407.25,179.3247 377,226.8547 359.8,255.8547 " fill="none" id="NetCoreManager-&gt;RadioManager" style="stroke: #A80036; stroke-width: 1.0; stroke-dasharray: 7.0,7.0;"/><polygon fill="#A80036" points="357.15,260.3447,365.1659,254.6223,359.6888,256.0372,358.2739,250.5602,357.15,260.3447" style="stroke: #A80036; stroke-width: 1.0;"/><!--MD5=[940ebfc7404d614c7fa10c62545cef79]
link NetCoreManager to IPCCore--><path d="M566.69,91.4447 C793.63,94.1047 1570.91,105.9347 1607,143.8047 C1671.09,211.0447 1666.7,281.6347 1607,352.8047 C1563.54,404.6147 1354.44,416.9747 1263.92,419.9047 " fill="none" id="NetCoreManager-&gt;IPCCore" style="stroke: #A80036; stroke-width: 1.0; stroke-dasharray: 7.0,7.0;"/><polygon fill="#A80036" points="1258.66,420.0647,1267.7812,423.78,1263.6575,419.9076,1267.5299,415.7839,1258.66,420.0647" style="stroke: #A80036; stroke-width: 1.0;"/><!--MD5=[24ca7e61aece5a52faa7ec47a2fd5713]
@startuml namespace_hierarchy
skinparam backgroundColor #FFFFFF
skinparam packageStyle rectangle
skinparam defaultFontSize 11

title C++ Namespace Hierarchy

package "smarthome::" as SM {
    package "hw::" #LightCoral {
        interface ButtonManager
        interface UartManager
    }
    
    package "protocol::" {
        package "matter::" #LightGreen {
            interface AppTask
            interface LightEndpoint
        }
        
        package "thread::" #LightYellow {
            interface ThreadNetworkManager
            interface NetworkResilienceManager
        }
        
        package "ble::" #LightPink {
            interface BLEManager
        }
        
        package "radio::" #LightPink {
            interface RadioManager
        }
    }
    
    package "ipc::" #Orange {
        interface IPCCore
    }
    
    package "services::" {
        package "wakeword::" #Lavender {
            interface ModelLoader
        }
    }
}

package "net::" as NET #LightBlue {
    interface NetCoreManager
}

AppTask ..> IPCCore
ThreadNetworkManager ..> IPCCore
NetCoreManager ..> BLEManager
NetCoreManager ..> RadioManager
NetCoreManager ..> IPCCore

@enduml

PlantUML version 1.2020.02(Sun Mar 01 17:22:07 ICT 2020)
(GPL source distribution)
Java Runtime: OpenJDK Runtime Environment
JVM: OpenJDK 64-Bit Server VM
Java Version: 21.0.9+10-Ubuntu-124.04
Operating System: Linux
Default Encoding: UTF-8
Language: en
Country: US
--></g></svg>